<svg xmlns="http://www.w3.org/2000/svg" viewBox="0 0 1040 700" font-family="Arial, Helvetica, sans-serif"><rect width="1040" height="700" fill="#FFFFFF"/><text x="40" y="36" font-family="Arial, Helvetica, sans-serif" font-size="22" fill="#1B3A5C" text-anchor="start" font-weight="bold">many DS18B20 probes, one wire</text><text x="40" y="55" font-family="Arial, Helvetica, sans-serif" font-size="12.5" fill="#6B7280" text-anchor="start">three shown, dozens possible  ·  STILL just one 4.7k pullup</text><rect x="118" y="104" width="152" height="476" rx="12" fill="#1B5E20" stroke="#0E3D12" stroke-width="2"/><rect x="172" y="91" width="44" height="17" rx="4" fill="#9AA5AD" stroke="#6B7680" stroke-width="1.5"/><text x="194" y="124" font-family="Arial, Helvetica, sans-serif" font-size="11" fill="#C7E0C9" text-anchor="middle" font-weight="bold">Pico 2 W</text><rect x="125" y="131" width="14" height="14" rx="3" fill="#C9A227" stroke="#0E3D12" stroke-width="1"/><circle cx="132" cy="138" r="3" fill="#5C4A00"/><text x="145" y="142" font-family="Arial, Helvetica, sans-serif" font-size="10.5" fill="#EAF4EB" text-anchor="start" font-weight="bold">GP0</text><text x="120" y="141.5" font-family="Arial, Helvetica, sans-serif" font-size="9" fill="#222A35" text-anchor="end" font-weight="bold">1</text><rect x="125" y="153" width="14" height="14" rx="3" fill="#C9A227" stroke="#0E3D12" stroke-width="1"/><circle cx="132" cy="160" r="3" fill="#5C4A00"/><text x="145" y="164" font-family="Arial, Helvetica, sans-serif" font-size="10.5" fill="#EAF4EB" text-anchor="start" font-weight="bold">GP1</text><text x="120" y="163.5" font-family="Arial, Helvetica, sans-serif" font-size="9" fill="#222A35" text-anchor="end" font-weight="bold">2</text><rect x="125" y="175" width="14" height="14" rx="3" fill="#AEB6BF" stroke="#0E3D12" stroke-width="1"/><circle cx="132" cy="182" r="3" fill="#7E8791"/><text x="145" y="186" font-family="Arial, Helvetica, sans-serif" font-size="10.5" fill="#EAF4EB" text-anchor="start">GND</text><text x="120" y="185.5" font-family="Arial, Helvetica, sans-serif" font-size="9" fill="#6B7280" text-anchor="end">3</text><rect x="125" y="197" width="14" height="14" rx="3" fill="#AEB6BF" stroke="#0E3D12" stroke-width="1"/><circle cx="132" cy="204" r="3" fill="#7E8791"/><text x="145" y="208" font-family="Arial, Helvetica, sans-serif" font-size="10.5" fill="#EAF4EB" text-anchor="start">GP2</text><text x="120" y="207.5" font-family="Arial, Helvetica, sans-serif" font-size="9" fill="#6B7280" text-anchor="end">4</text><rect x="125" y="219" width="14" height="14" rx="3" fill="#AEB6BF" stroke="#0E3D12" stroke-width="1"/><circle cx="132" cy="226" r="3" fill="#7E8791"/><text x="145" y="230" font-family="Arial, Helvetica, sans-serif" font-size="10.5" fill="#EAF4EB" text-anchor="start">GP3</text><text x="120" y="229.5" font-family="Arial, Helvetica, sans-serif" font-size="9" fill="#6B7280" text-anchor="end">5</text><rect x="125" y="241" width="14" height="14" rx="3" fill="#AEB6BF" stroke="#0E3D12" stroke-width="1"/><circle cx="132" cy="248" r="3" fill="#7E8791"/><text x="145" y="252" font-family="Arial, Helvetica, sans-serif" font-size="10.5" fill="#EAF4EB" text-anchor="start">GP4</text><text x="120" y="251.5" font-family="Arial, Helvetica, sans-serif" font-size="9" fill="#6B7280" text-anchor="end">6</text><rect x="125" y="263" width="14" height="14" rx="3" fill="#AEB6BF" stroke="#0E3D12" stroke-width="1"/><circle cx="132" cy="270" r="3" fill="#7E8791"/><text x="145" y="274" font-family="Arial, Helvetica, sans-serif" font-size="10.5" fill="#EAF4EB" text-anchor="start">GP5</text><text x="120" y="273.5" font-family="Arial, Helvetica, sans-serif" font-size="9" fill="#6B7280" text-anchor="end">7</text><rect x="125" y="285" width="14" height="14" rx="3" fill="#AEB6BF" stroke="#0E3D12" stroke-width="1"/><circle cx="132" cy="292" r="3" fill="#7E8791"/><text x="145" y="296" font-family="Arial, Helvetica, sans-serif" font-size="10.5" fill="#EAF4EB" text-anchor="start">GND</text><text x="120" y="295.5" font-family="Arial, Helvetica, sans-serif" font-size="9" fill="#6B7280" text-anchor="end">8</text><rect x="125" y="307" width="14" height="14" rx="3" fill="#AEB6BF" stroke="#0E3D12" stroke-width="1"/><circle cx="132" cy="314" r="3" fill="#7E8791"/><text x="145" y="318" font-family="Arial, Helvetica, sans-serif" font-size="10.5" fill="#EAF4EB" text-anchor="start">GP6</text><text x="120" y="317.5" font-family="Arial, Helvetica, sans-serif" font-size="9" fill="#6B7280" text-anchor="end">9</text><rect x="125" y="329" width="14" height="14" rx="3" fill="#AEB6BF" stroke="#0E3D12" stroke-width="1"/><circle cx="132" cy="336" r="3" fill="#7E8791"/><text x="145" y="340" font-family="Arial, Helvetica, sans-serif" font-size="10.5" fill="#EAF4EB" text-anchor="start">GP7</text><text x="120" y="339.5" font-family="Arial, Helvetica, sans-serif" font-size="9" fill="#6B7280" text-anchor="end">10</text><rect x="125" y="351" width="14" height="14" rx="3" fill="#AEB6BF" stroke="#0E3D12" stroke-width="1"/><circle cx="132" cy="358" r="3" fill="#7E8791"/><text x="145" y="362" font-family="Arial, Helvetica, sans-serif" font-size="10.5" fill="#EAF4EB" text-anchor="start">GP8</text><text x="120" y="361.5" font-family="Arial, Helvetica, sans-serif" font-size="9" fill="#6B7280" text-anchor="end">11</text><rect x="125" y="373" width="14" height="14" rx="3" fill="#AEB6BF" stroke="#0E3D12" stroke-width="1"/><circle cx="132" cy="380" r="3" fill="#7E8791"/><text x="145" y="384" font-family="Arial, Helvetica, sans-serif" font-size="10.5" fill="#EAF4EB" text-anchor="start">GP9</text><text x="120" y="383.5" font-family="Arial, Helvetica, sans-serif" font-size="9" fill="#6B7280" text-anchor="end">12</text><rect x="125" y="395" width="14" height="14" rx="3" fill="#AEB6BF" stroke="#0E3D12" stroke-width="1"/><circle cx="132" cy="402" r="3" fill="#7E8791"/><text x="145" y="406" font-family="Arial, Helvetica, sans-serif" font-size="10.5" fill="#EAF4EB" text-anchor="start">GND</text><text x="120" y="405.5" font-family="Arial, Helvetica, sans-serif" font-size="9" fill="#6B7280" text-anchor="end">13</text><rect x="125" y="417" width="14" height="14" rx="3" fill="#AEB6BF" stroke="#0E3D12" stroke-width="1"/><circle cx="132" cy="424" r="3" fill="#7E8791"/><text x="145" y="428" font-family="Arial, Helvetica, sans-serif" font-size="10.5" fill="#EAF4EB" text-anchor="start">GP10</text><text x="120" y="427.5" font-family="Arial, Helvetica, sans-serif" font-size="9" fill="#6B7280" text-anchor="end">14</text><rect x="125" y="439" width="14" height="14" rx="3" fill="#AEB6BF" stroke="#0E3D12" stroke-width="1"/><circle cx="132" cy="446" r="3" fill="#7E8791"/><text x="145" y="450" font-family="Arial, Helvetica, sans-serif" font-size="10.5" fill="#EAF4EB" text-anchor="start">GP11</text><text x="120" y="449.5" font-family="Arial, Helvetica, sans-serif" font-size="9" fill="#6B7280" text-anchor="end">15</text><rect x="125" y="461" width="14" height="14" rx="3" fill="#AEB6BF" stroke="#0E3D12" stroke-width="1"/><circle cx="132" cy="468" r="3" fill="#7E8791"/><text x="145" y="472" font-family="Arial, Helvetica, sans-serif" font-size="10.5" fill="#EAF4EB" text-anchor="start">GP12</text><text x="120" y="471.5" font-family="Arial, Helvetica, sans-serif" font-size="9" fill="#6B7280" text-anchor="end">16</text><rect x="125" y="483" width="14" height="14" rx="3" fill="#AEB6BF" stroke="#0E3D12" stroke-width="1"/><circle cx="132" cy="490" r="3" fill="#7E8791"/><text x="145" y="494" font-family="Arial, Helvetica, sans-serif" font-size="10.5" fill="#EAF4EB" text-anchor="start">GP13</text><text x="120" y="493.5" font-family="Arial, Helvetica, sans-serif" font-size="9" fill="#6B7280" text-anchor="end">17</text><rect x="125" y="505" width="14" height="14" rx="3" fill="#AEB6BF" stroke="#0E3D12" stroke-width="1"/><circle cx="132" cy="512" r="3" fill="#7E8791"/><text x="145" y="516" font-family="Arial, Helvetica, sans-serif" font-size="10.5" fill="#EAF4EB" text-anchor="start">GND</text><text x="120" y="515.5" font-family="Arial, Helvetica, sans-serif" font-size="9" fill="#6B7280" text-anchor="end">18</text><rect x="125" y="527" width="14" height="14" rx="3" fill="#AEB6BF" stroke="#0E3D12" stroke-width="1"/><circle cx="132" cy="534" r="3" fill="#7E8791"/><text x="145" y="538" font-family="Arial, Helvetica, sans-serif" font-size="10.5" fill="#EAF4EB" text-anchor="start">GP14</text><text x="120" y="537.5" font-family="Arial, Helvetica, sans-serif" font-size="9" fill="#6B7280" text-anchor="end">19</text><rect x="125" y="549" width="14" height="14" rx="3" fill="#AEB6BF" stroke="#0E3D12" stroke-width="1"/><circle cx="132" cy="556" r="3" fill="#7E8791"/><text x="145" y="560" font-family="Arial, Helvetica, sans-serif" font-size="10.5" fill="#EAF4EB" text-anchor="start">GP15</text><text x="120" y="559.5" font-family="Arial, Helvetica, sans-serif" font-size="9" fill="#6B7280" text-anchor="end">20</text><rect x="249" y="549" width="14" height="14" rx="3" fill="#AEB6BF" stroke="#0E3D12" stroke-width="1"/><circle cx="256" cy="556" r="3" fill="#7E8791"/><text x="243" y="560" font-family="Arial, Helvetica, sans-serif" font-size="10.5" fill="#EAF4EB" text-anchor="end">GP16</text><text x="268" y="559.5" font-family="Arial, Helvetica, sans-serif" font-size="9" fill="#6B7280" text-anchor="start">21</text><rect x="249" y="527" width="14" height="14" rx="3" fill="#AEB6BF" stroke="#0E3D12" stroke-width="1"/><circle cx="256" cy="534" r="3" fill="#7E8791"/><text x="243" y="538" font-family="Arial, Helvetica, sans-serif" font-size="10.5" fill="#EAF4EB" text-anchor="end">GP17</text><text x="268" y="537.5" font-family="Arial, Helvetica, sans-serif" font-size="9" fill="#6B7280" text-anchor="start">22</text><rect x="249" y="505" width="14" height="14" rx="3" fill="#AEB6BF" stroke="#0E3D12" stroke-width="1"/><circle cx="256" cy="512" r="3" fill="#7E8791"/><text x="243" y="516" font-family="Arial, Helvetica, sans-serif" font-size="10.5" fill="#EAF4EB" text-anchor="end">GND</text><text x="268" y="515.5" font-family="Arial, Helvetica, sans-serif" font-size="9" fill="#6B7280" text-anchor="start">23</text><rect x="249" y="483" width="14" height="14" rx="3" fill="#AEB6BF" stroke="#0E3D12" stroke-width="1"/><circle cx="256" cy="490" r="3" fill="#7E8791"/><text x="243" y="494" font-family="Arial, Helvetica, sans-serif" font-size="10.5" fill="#EAF4EB" text-anchor="end">GP18</text><text x="268" y="493.5" font-family="Arial, Helvetica, sans-serif" font-size="9" fill="#6B7280" text-anchor="start">24</text><rect x="249" y="461" width="14" height="14" rx="3" fill="#AEB6BF" stroke="#0E3D12" stroke-width="1"/><circle cx="256" cy="468" r="3" fill="#7E8791"/><text x="243" y="472" font-family="Arial, Helvetica, sans-serif" font-size="10.5" fill="#EAF4EB" text-anchor="end">GP19</text><text x="268" y="471.5" font-family="Arial, Helvetica, sans-serif" font-size="9" fill="#6B7280" text-anchor="start">25</text><rect x="249" y="439" width="14" height="14" rx="3" fill="#AEB6BF" stroke="#0E3D12" stroke-width="1"/><circle cx="256" cy="446" r="3" fill="#7E8791"/><text x="243" y="450" font-family="Arial, Helvetica, sans-serif" font-size="10.5" fill="#EAF4EB" text-anchor="end">GP20</text><text x="268" y="449.5" font-family="Arial, Helvetica, sans-serif" font-size="9" fill="#6B7280" text-anchor="start">26</text><rect x="249" y="417" width="14" height="14" rx="3" fill="#AEB6BF" stroke="#0E3D12" stroke-width="1"/><circle cx="256" cy="424" r="3" fill="#7E8791"/><text x="243" y="428" font-family="Arial, Helvetica, sans-serif" font-size="10.5" fill="#EAF4EB" text-anchor="end">GP21</text><text x="268" y="427.5" font-family="Arial, Helvetica, sans-serif" font-size="9" fill="#6B7280" text-anchor="start">27</text><rect x="249" y="395" width="14" height="14" rx="3" fill="#AEB6BF" stroke="#0E3D12" stroke-width="1"/><circle cx="256" cy="402" r="3" fill="#7E8791"/><text x="243" y="406" font-family="Arial, Helvetica, sans-serif" font-size="10.5" fill="#EAF4EB" text-anchor="end">GND</text><text x="268" y="405.5" font-family="Arial, Helvetica, sans-serif" font-size="9" fill="#6B7280" text-anchor="start">28</text><rect x="249" y="373" width="14" height="14" rx="3" fill="#C9A227" stroke="#0E3D12" stroke-width="1"/><circle cx="256" cy="380" r="3" fill="#5C4A00"/><text x="243" y="384" font-family="Arial, Helvetica, sans-serif" font-size="10.5" fill="#EAF4EB" text-anchor="end" font-weight="bold">GP22</text><text x="268" y="383.5" font-family="Arial, Helvetica, sans-serif" font-size="9" fill="#222A35" text-anchor="start" font-weight="bold">29</text><rect x="249" y="351" width="14" height="14" rx="3" fill="#AEB6BF" stroke="#0E3D12" stroke-width="1"/><circle cx="256" cy="358" r="3" fill="#7E8791"/><text x="243" y="362" font-family="Arial, Helvetica, sans-serif" font-size="10.5" fill="#EAF4EB" text-anchor="end">RUN</text><text x="268" y="361.5" font-family="Arial, Helvetica, sans-serif" font-size="9" fill="#6B7280" text-anchor="start">30</text><rect x="249" y="329" width="14" height="14" rx="3" fill="#AEB6BF" stroke="#0E3D12" stroke-width="1"/><circle cx="256" cy="336" r="3" fill="#7E8791"/><text x="243" y="340" font-family="Arial, Helvetica, sans-serif" font-size="10.5" fill="#EAF4EB" text-anchor="end">GP26</text><text x="209" y="340" font-family="Arial, Helvetica, sans-serif" font-size="8" fill="#A6C4A8" text-anchor="end">ADC0</text><text x="268" y="339.5" font-family="Arial, Helvetica, sans-serif" font-size="9" fill="#6B7280" text-anchor="start">31</text><rect x="249" y="307" width="14" height="14" rx="3" fill="#AEB6BF" stroke="#0E3D12" stroke-width="1"/><circle cx="256" cy="314" r="3" fill="#7E8791"/><text x="243" y="318" font-family="Arial, Helvetica, sans-serif" font-size="10.5" fill="#EAF4EB" text-anchor="end">GP27</text><text x="209" y="318" font-family="Arial, Helvetica, sans-serif" font-size="8" fill="#A6C4A8" text-anchor="end">ADC1</text><text x="268" y="317.5" font-family="Arial, Helvetica, sans-serif" font-size="9" fill="#6B7280" text-anchor="start">32</text><rect x="249" y="285" width="14" height="14" rx="3" fill="#AEB6BF" stroke="#0E3D12" stroke-width="1"/><circle cx="256" cy="292" r="3" fill="#7E8791"/><text x="243" y="296" font-family="Arial, Helvetica, sans-serif" font-size="10.5" fill="#EAF4EB" text-anchor="end">AGND</text><text x="268" y="295.5" font-family="Arial, Helvetica, sans-serif" font-size="9" fill="#6B7280" text-anchor="start">33</text><rect x="249" y="263" width="14" height="14" rx="3" fill="#AEB6BF" stroke="#0E3D12" stroke-width="1"/><circle cx="256" cy="270" r="3" fill="#7E8791"/><text x="243" y="274" font-family="Arial, Helvetica, sans-serif" font-size="10.5" fill="#EAF4EB" text-anchor="end">GP28</text><text x="209" y="274" font-family="Arial, Helvetica, sans-serif" font-size="8" fill="#A6C4A8" text-anchor="end">ADC2</text><text x="268" y="273.5" font-family="Arial, Helvetica, sans-serif" font-size="9" fill="#6B7280" text-anchor="start">34</text><rect x="249" y="241" width="14" height="14" rx="3" fill="#AEB6BF" stroke="#0E3D12" stroke-width="1"/><circle cx="256" cy="248" r="3" fill="#7E8791"/><text x="243" y="252" font-family="Arial, Helvetica, sans-serif" font-size="10.5" fill="#EAF4EB" text-anchor="end">VREF</text><text x="268" y="251.5" font-family="Arial, Helvetica, sans-serif" font-size="9" fill="#6B7280" text-anchor="start">35</text><rect x="249" y="219" width="14" height="14" rx="3" fill="#C9A227" stroke="#0E3D12" stroke-width="1"/><circle cx="256" cy="226" r="3" fill="#5C4A00"/><text x="243" y="230" font-family="Arial, Helvetica, sans-serif" font-size="10.5" fill="#EAF4EB" text-anchor="end" font-weight="bold">3V3</text><text x="268" y="229.5" font-family="Arial, Helvetica, sans-serif" font-size="9" fill="#222A35" text-anchor="start" font-weight="bold">36</text><rect x="249" y="197" width="14" height="14" rx="3" fill="#AEB6BF" stroke="#0E3D12" stroke-width="1"/><circle cx="256" cy="204" r="3" fill="#7E8791"/><text x="243" y="208" font-family="Arial, Helvetica, sans-serif" font-size="10.5" fill="#EAF4EB" text-anchor="end">3V3EN</text><text x="268" y="207.5" font-family="Arial, Helvetica, sans-serif" font-size="9" fill="#6B7280" text-anchor="start">37</text><rect x="249" y="175" width="14" height="14" rx="3" fill="#C9A227" stroke="#0E3D12" stroke-width="1"/><circle cx="256" cy="182" r="3" fill="#5C4A00"/><text x="243" y="186" font-family="Arial, Helvetica, sans-serif" font-size="10.5" fill="#EAF4EB" text-anchor="end" font-weight="bold">GND</text><text x="268" y="185.5" font-family="Arial, Helvetica, sans-serif" font-size="9" fill="#222A35" text-anchor="start" font-weight="bold">38</text><rect x="249" y="153" width="14" height="14" rx="3" fill="#AEB6BF" stroke="#0E3D12" stroke-width="1"/><circle cx="256" cy="160" r="3" fill="#7E8791"/><text x="243" y="164" font-family="Arial, Helvetica, sans-serif" font-size="10.5" fill="#EAF4EB" text-anchor="end">VSYS</text><text x="268" y="163.5" font-family="Arial, Helvetica, sans-serif" font-size="9" fill="#6B7280" text-anchor="start">39</text><rect x="249" y="131" width="14" height="14" rx="3" fill="#AEB6BF" stroke="#0E3D12" stroke-width="1"/><circle cx="256" cy="138" r="3" fill="#7E8791"/><text x="243" y="142" font-family="Arial, Helvetica, sans-serif" font-size="10.5" fill="#EAF4EB" text-anchor="end">VBUS</text><text x="268" y="141.5" font-family="Arial, Helvetica, sans-serif" font-size="9" fill="#6B7280" text-anchor="start">40</text><path d="M298 120 L298 486" fill="none" stroke="#C62828" stroke-width="5" stroke-linejoin="round" stroke-linecap="round"/><path d="M330 120 L330 486" fill="none" stroke="#37474F" stroke-width="5" stroke-linejoin="round" stroke-linecap="round"/><text x="298" y="112" font-family="Arial, Helvetica, sans-serif" font-size="11" fill="#C62828" text-anchor="middle" font-weight="bold">3V3</text><text x="330" y="112" font-family="Arial, Helvetica, sans-serif" font-size="11" fill="#37474F" text-anchor="middle" font-weight="bold">GND</text><path d="M270 226 L298 226" fill="none" stroke="#C62828" stroke-width="3.5" stroke-linejoin="round" stroke-linecap="round"/><circle cx="270" cy="226" r="4.2" fill="#C62828"/><path d="M270 182 L330 182" fill="none" stroke="#37474F" stroke-width="3.5" stroke-linejoin="round" stroke-linecap="round"/><circle cx="270" cy="182" r="4.2" fill="#37474F"/><rect x="452" y="116" width="150" height="96" rx="9" fill="#F4F7FA" stroke="#2E7DBC" stroke-width="2.5"/><path d="M452 125 q0 -9 9 -9 h132 q9 0 9 9 v17 h-150 z" fill="#2E7DBC"/><text x="527" y="134" font-family="Arial, Helvetica, sans-serif" font-size="13" fill="#FFFFFF" text-anchor="middle" font-weight="bold">OLED</text><text x="527" y="226" font-family="Arial, Helvetica, sans-serif" font-size="9.5" fill="#6B7280" text-anchor="middle" font-style="italic">0x3C</text><text x="460" y="159.5" font-family="Arial, Helvetica, sans-serif" font-size="9.5" fill="#222A35" text-anchor="start" font-weight="bold">VCC</text><text x="460" y="175.5" font-family="Arial, Helvetica, sans-serif" font-size="9.5" fill="#222A35" text-anchor="start" font-weight="bold">GND</text><text x="460" y="191.5" font-family="Arial, Helvetica, sans-serif" font-size="9.5" fill="#222A35" text-anchor="start" font-weight="bold">SDA</text><text x="460" y="207.5" font-family="Arial, Helvetica, sans-serif" font-size="9.5" fill="#222A35" text-anchor="start" font-weight="bold">SCL</text><path d="M298 156 L452 156" fill="none" stroke="#C62828" stroke-width="3.5" stroke-linejoin="round" stroke-linecap="round"/><circle cx="452" cy="156" r="4.2" fill="#C62828"/><path d="M330 172 L452 172" fill="none" stroke="#37474F" stroke-width="3.5" stroke-linejoin="round" stroke-linecap="round"/><circle cx="452" cy="172" r="4.2" fill="#37474F"/><path d="M118 138 L102 138 L102 64 L350 64" fill="none" stroke="#7CB342" stroke-width="3.5" stroke-linejoin="round" stroke-linecap="round"/><circle cx="118" cy="138" r="4.2" fill="#7CB342"/><path d="M350 64 L350 188" fill="none" stroke="#7CB342" stroke-width="3.5" stroke-linejoin="round" stroke-linecap="round"/><path d="M350 188 L452 188" fill="none" stroke="#7CB342" stroke-width="3.5" stroke-linejoin="round" stroke-linecap="round"/><circle cx="452" cy="188" r="4.2" fill="#7CB342"/><path d="M118 160 L90 160 L90 76 L363 76" fill="none" stroke="#8B949C" stroke-width="6.1" stroke-linejoin="round" stroke-linecap="round"/><path d="M118 160 L90 160 L90 76 L363 76" fill="none" stroke="#FFFFFF" stroke-width="3.5" stroke-linejoin="round" stroke-linecap="round"/><circle cx="118" cy="160" r="4.2" fill="#FFFFFF" stroke="#8B949C" stroke-width="1.6"/><path d="M363 76 L363 204" fill="none" stroke="#8B949C" stroke-width="6.1" stroke-linejoin="round" stroke-linecap="round"/><path d="M363 76 L363 204" fill="none" stroke="#FFFFFF" stroke-width="3.5" stroke-linejoin="round" stroke-linecap="round"/><path d="M363 204 L452 204" fill="none" stroke="#8B949C" stroke-width="6.1" stroke-linejoin="round" stroke-linecap="round"/><path d="M363 204 L452 204" fill="none" stroke="#FFFFFF" stroke-width="3.5" stroke-linejoin="round" stroke-linecap="round"/><circle cx="452" cy="204" r="4.2" fill="#FFFFFF" stroke="#8B949C" stroke-width="1.6"/><rect x="452" y="238" width="150" height="66" rx="9" fill="#F4F7FA" stroke="#E8762C" stroke-width="2.5"/><path d="M452 247 q0 -9 9 -9 h132 q9 0 9 9 v17 h-150 z" fill="#E8762C"/><text x="527" y="256" font-family="Arial, Helvetica, sans-serif" font-size="13" fill="#FFFFFF" text-anchor="middle" font-weight="bold">DS18B20 probe 1</text><text x="460" y="275.5" font-family="Arial, Helvetica, sans-serif" font-size="9.5" fill="#222A35" text-anchor="start" font-weight="bold">red 3V3</text><text x="460" y="289.5" font-family="Arial, Helvetica, sans-serif" font-size="9.5" fill="#222A35" text-anchor="start" font-weight="bold">blk GND</text><text x="460" y="303.5" font-family="Arial, Helvetica, sans-serif" font-size="9.5" fill="#222A35" text-anchor="start" font-weight="bold">grn DATA</text><rect x="452" y="330" width="150" height="66" rx="9" fill="#F4F7FA" stroke="#E8762C" stroke-width="2.5"/><path d="M452 339 q0 -9 9 -9 h132 q9 0 9 9 v17 h-150 z" fill="#E8762C"/><text x="527" y="348" font-family="Arial, Helvetica, sans-serif" font-size="13" fill="#FFFFFF" text-anchor="middle" font-weight="bold">DS18B20 probe 2</text><text x="460" y="367.5" font-family="Arial, Helvetica, sans-serif" font-size="9.5" fill="#222A35" text-anchor="start" font-weight="bold">red 3V3</text><text x="460" y="381.5" font-family="Arial, Helvetica, sans-serif" font-size="9.5" fill="#222A35" text-anchor="start" font-weight="bold">blk GND</text><text x="460" y="395.5" font-family="Arial, Helvetica, sans-serif" font-size="9.5" fill="#222A35" text-anchor="start" font-weight="bold">grn DATA</text><rect x="452" y="422" width="150" height="66" rx="9" fill="#F4F7FA" stroke="#E8762C" stroke-width="2.5"/><path d="M452 431 q0 -9 9 -9 h132 q9 0 9 9 v17 h-150 z" fill="#E8762C"/><text x="527" y="440" font-family="Arial, Helvetica, sans-serif" font-size="13" fill="#FFFFFF" text-anchor="middle" font-weight="bold">DS18B20 probe 3</text><text x="460" y="459.5" font-family="Arial, Helvetica, sans-serif" font-size="9.5" fill="#222A35" text-anchor="start" font-weight="bold">red 3V3</text><text x="460" y="473.5" font-family="Arial, Helvetica, sans-serif" font-size="9.5" fill="#222A35" text-anchor="start" font-weight="bold">blk GND</text><text x="460" y="487.5" font-family="Arial, Helvetica, sans-serif" font-size="9.5" fill="#222A35" text-anchor="start" font-weight="bold">grn DATA</text><path d="M298 272 L452 272" fill="none" stroke="#C62828" stroke-width="3.5" stroke-linejoin="round" stroke-linecap="round"/><circle cx="452" cy="272" r="4.2" fill="#C62828"/><path d="M330 286 L452 286" fill="none" stroke="#37474F" stroke-width="3.5" stroke-linejoin="round" stroke-linecap="round"/><circle cx="452" cy="286" r="4.2" fill="#37474F"/><path d="M298 364 L452 364" fill="none" stroke="#C62828" stroke-width="3.5" stroke-linejoin="round" stroke-linecap="round"/><circle cx="452" cy="364" r="4.2" fill="#C62828"/><path d="M330 378 L452 378" fill="none" stroke="#37474F" stroke-width="3.5" stroke-linejoin="round" stroke-linecap="round"/><circle cx="452" cy="378" r="4.2" fill="#37474F"/><path d="M298 456 L452 456" fill="none" stroke="#C62828" stroke-width="3.5" stroke-linejoin="round" stroke-linecap="round"/><circle cx="452" cy="456" r="4.2" fill="#C62828"/><path d="M330 470 L452 470" fill="none" stroke="#37474F" stroke-width="3.5" stroke-linejoin="round" stroke-linecap="round"/><circle cx="452" cy="470" r="4.2" fill="#37474F"/><path d="M270 380 L376 380" fill="none" stroke="#7CB342" stroke-width="3.5" stroke-linejoin="round" stroke-linecap="round"/><circle cx="270" cy="380" r="4.2" fill="#7CB342"/><path d="M376 300 L376 484" fill="none" stroke="#7CB342" stroke-width="3.5" stroke-linejoin="round" stroke-linecap="round"/><path d="M376 300 L452 300" fill="none" stroke="#7CB342" stroke-width="3.5" stroke-linejoin="round" stroke-linecap="round"/><circle cx="452" cy="300" r="4.2" fill="#7CB342"/><path d="M376 392 L452 392" fill="none" stroke="#7CB342" stroke-width="3.5" stroke-linejoin="round" stroke-linecap="round"/><circle cx="452" cy="392" r="4.2" fill="#7CB342"/><path d="M376 484 L452 484" fill="none" stroke="#7CB342" stroke-width="3.5" stroke-linejoin="round" stroke-linecap="round"/><circle cx="452" cy="484" r="4.2" fill="#7CB342"/><rect x="364" y="274" width="13" height="32" rx="3" fill="#E9D9B6" stroke="#222A35" stroke-width="1.3"/><rect x="365" y="279.12" width="11" height="3" fill="#F2C400"/><rect x="365" y="285.52" width="11" height="3" fill="#7E2AA8"/><rect x="365" y="291.92" width="11" height="3" fill="#C62828"/><rect x="365" y="298.32" width="11" height="3" fill="#C9A227"/><text x="370" y="270" font-family="Arial, Helvetica, sans-serif" font-size="9" fill="#222A35" text-anchor="middle" font-weight="bold">4.7k</text><path d="M298 282 L370 282 L370 274" fill="none" stroke="#C62828" stroke-width="2.5" stroke-linejoin="round" stroke-linecap="round"/><path d="M370 306 L370 300 L444 300" fill="none" stroke="#7CB342" stroke-width="2.5" stroke-linejoin="round" stroke-linecap="round"/><text x="527" y="520" font-family="Arial, Helvetica, sans-serif" font-size="11.5" fill="#6B7280" text-anchor="middle" font-style="italic">probe 4, 5, 6... same three wires. No new resistor.</text><rect x="634" y="104" width="378" height="191" rx="9" fill="#FFFFFF" stroke="#E1E8EF" stroke-width="1.5"/><text x="648" y="122" font-family="Arial, Helvetica, sans-serif" font-size="13" fill="#1B3A5C" text-anchor="start" font-weight="bold">Connections</text><line x1="648" y1="142" x2="674" y2="142" stroke="#7CB342" stroke-width="4" stroke-linecap="round"/><text x="682" y="146" font-family="Arial, Helvetica, sans-serif" font-size="11.5" fill="#222A35" text-anchor="start">ONE green DATA bus -> GP22 (pin 29), all probes</text><line x1="648" y1="165" x2="674" y2="165" stroke="#C62828" stroke-width="4" stroke-linecap="round"/><text x="682" y="169" font-family="Arial, Helvetica, sans-serif" font-size="11.5" fill="#222A35" text-anchor="start">ONE 4.7k pullup TOTAL: DATA -> 3V3</text><line x1="648" y1="188" x2="674" y2="188" stroke="#37474F" stroke-width="4" stroke-linecap="round"/><text x="682" y="192" font-family="Arial, Helvetica, sans-serif" font-size="11.5" fill="#222A35" text-anchor="start">all reds to 3V3 rail, all blacks to GND rail</text><text x="648" y="215" font-family="Arial, Helvetica, sans-serif" font-size="11" fill="#222A35" text-anchor="start">each probe has a factory serial number, so the</text><text x="648" y="238" font-family="Arial, Helvetica, sans-serif" font-size="11" fill="#222A35" text-anchor="start">code tells them apart automatically (and you can</text><text x="648" y="261" font-family="Arial, Helvetica, sans-serif" font-size="11" fill="#222A35" text-anchor="start">label + position each one on the dashboard)</text><text x="648" y="284" font-family="Arial, Helvetica, sans-serif" font-size="11" fill="#222A35" text-anchor="start">4.7k bands: yellow violet red gold</text><text x="40" y="676" font-family="Arial, Helvetica, sans-serif" font-size="10.5" fill="#6B7280" text-anchor="start">Maker Lab Kids  ·  Pico 2 W  ·  numbers outside the board are physical header pins</text><text x="1000" y="676" font-family="Arial, Helvetica, sans-serif" font-size="10.5" fill="#2E7DBC" text-anchor="end" font-weight="bold">MakerLabKids.com</text></svg>