<svg xmlns="http://www.w3.org/2000/svg" viewBox="60 195 880 375" font-family="Arial, Helvetica, sans-serif" role="img" aria-label="One student station: a Pico, a sensor, and a screen on a breadboard, sending readings over its own WiFi to a phone."><rect width="1000" height="580" fill="#FFFFFF"/><rect x="250" y="330" width="340" height="150" rx="12" fill="#E9D9B6" stroke="#C9B489" stroke-width="2"/><circle cx="268" cy="356" r="2.2" fill="#C9B489"/><circle cx="282.5" cy="356" r="2.2" fill="#C9B489"/><circle cx="297" cy="356" r="2.2" fill="#C9B489"/><circle cx="311.5" cy="356" r="2.2" fill="#C9B489"/><circle cx="326" cy="356" r="2.2" fill="#C9B489"/><circle cx="340.5" cy="356" r="2.2" fill="#C9B489"/><circle cx="355" cy="356" r="2.2" fill="#C9B489"/><circle cx="369.5" cy="356" r="2.2" fill="#C9B489"/><circle cx="384" cy="356" r="2.2" fill="#C9B489"/><circle cx="398.5" cy="356" r="2.2" fill="#C9B489"/><circle cx="413" cy="356" r="2.2" fill="#C9B489"/><circle cx="427.5" cy="356" r="2.2" fill="#C9B489"/><circle cx="442" cy="356" r="2.2" fill="#C9B489"/><circle cx="456.5" cy="356" r="2.2" fill="#C9B489"/><circle cx="471" cy="356" r="2.2" fill="#C9B489"/><circle cx="485.5" cy="356" r="2.2" fill="#C9B489"/><circle cx="500" cy="356" r="2.2" fill="#C9B489"/><circle cx="514.5" cy="356" r="2.2" fill="#C9B489"/><circle cx="529" cy="356" r="2.2" fill="#C9B489"/><circle cx="543.5" cy="356" r="2.2" fill="#C9B489"/><circle cx="558" cy="356" r="2.2" fill="#C9B489"/><circle cx="572.5" cy="356" r="2.2" fill="#C9B489"/><circle cx="268" cy="382" r="2.2" fill="#C9B489"/><circle cx="282.5" cy="382" r="2.2" fill="#C9B489"/><circle cx="297" cy="382" r="2.2" fill="#C9B489"/><circle cx="311.5" cy="382" r="2.2" fill="#C9B489"/><circle cx="326" cy="382" r="2.2" fill="#C9B489"/><circle cx="340.5" cy="382" r="2.2" fill="#C9B489"/><circle cx="355" cy="382" r="2.2" fill="#C9B489"/><circle cx="369.5" cy="382" r="2.2" fill="#C9B489"/><circle cx="384" cy="382" r="2.2" fill="#C9B489"/><circle cx="398.5" cy="382" r="2.2" fill="#C9B489"/><circle cx="413" cy="382" r="2.2" fill="#C9B489"/><circle cx="427.5" cy="382" r="2.2" fill="#C9B489"/><circle cx="442" cy="382" r="2.2" fill="#C9B489"/><circle cx="456.5" cy="382" r="2.2" fill="#C9B489"/><circle cx="471" cy="382" r="2.2" fill="#C9B489"/><circle cx="485.5" cy="382" r="2.2" fill="#C9B489"/><circle cx="500" cy="382" r="2.2" fill="#C9B489"/><circle cx="514.5" cy="382" r="2.2" fill="#C9B489"/><circle cx="529" cy="382" r="2.2" fill="#C9B489"/><circle cx="543.5" cy="382" r="2.2" fill="#C9B489"/><circle cx="558" cy="382" r="2.2" fill="#C9B489"/><circle cx="572.5" cy="382" r="2.2" fill="#C9B489"/><circle cx="268" cy="408" r="2.2" fill="#C9B489"/><circle cx="282.5" cy="408" r="2.2" fill="#C9B489"/><circle cx="297" cy="408" r="2.2" fill="#C9B489"/><circle cx="311.5" cy="408" r="2.2" fill="#C9B489"/><circle cx="326" cy="408" r="2.2" fill="#C9B489"/><circle cx="340.5" cy="408" r="2.2" fill="#C9B489"/><circle cx="355" cy="408" r="2.2" fill="#C9B489"/><circle cx="369.5" cy="408" r="2.2" fill="#C9B489"/><circle cx="384" cy="408" r="2.2" fill="#C9B489"/><circle cx="398.5" cy="408" r="2.2" fill="#C9B489"/><circle cx="413" cy="408" r="2.2" fill="#C9B489"/><circle cx="427.5" cy="408" r="2.2" fill="#C9B489"/><circle cx="442" cy="408" r="2.2" fill="#C9B489"/><circle cx="456.5" cy="408" r="2.2" fill="#C9B489"/><circle cx="471" cy="408" r="2.2" fill="#C9B489"/><circle cx="485.5" cy="408" r="2.2" fill="#C9B489"/><circle cx="500" cy="408" r="2.2" fill="#C9B489"/><circle cx="514.5" cy="408" r="2.2" fill="#C9B489"/><circle cx="529" cy="408" r="2.2" fill="#C9B489"/><circle cx="543.5" cy="408" r="2.2" fill="#C9B489"/><circle cx="558" cy="408" r="2.2" fill="#C9B489"/><circle cx="572.5" cy="408" r="2.2" fill="#C9B489"/><circle cx="268" cy="434" r="2.2" fill="#C9B489"/><circle cx="282.5" cy="434" r="2.2" fill="#C9B489"/><circle cx="297" cy="434" r="2.2" fill="#C9B489"/><circle cx="311.5" cy="434" r="2.2" fill="#C9B489"/><circle cx="326" cy="434" r="2.2" fill="#C9B489"/><circle cx="340.5" cy="434" r="2.2" fill="#C9B489"/><circle cx="355" cy="434" r="2.2" fill="#C9B489"/><circle cx="369.5" cy="434" r="2.2" fill="#C9B489"/><circle cx="384" cy="434" r="2.2" fill="#C9B489"/><circle cx="398.5" cy="434" r="2.2" fill="#C9B489"/><circle cx="413" cy="434" r="2.2" fill="#C9B489"/><circle cx="427.5" cy="434" r="2.2" fill="#C9B489"/><circle cx="442" cy="434" r="2.2" fill="#C9B489"/><circle cx="456.5" cy="434" r="2.2" fill="#C9B489"/><circle cx="471" cy="434" r="2.2" fill="#C9B489"/><circle cx="485.5" cy="434" r="2.2" fill="#C9B489"/><circle cx="500" cy="434" r="2.2" fill="#C9B489"/><circle cx="514.5" cy="434" r="2.2" fill="#C9B489"/><circle cx="529" cy="434" r="2.2" fill="#C9B489"/><circle cx="543.5" cy="434" r="2.2" fill="#C9B489"/><circle cx="558" cy="434" r="2.2" fill="#C9B489"/><circle cx="572.5" cy="434" r="2.2" fill="#C9B489"/><rect x="285" y="348" width="120" height="120" rx="10" fill="#1B7A3A" stroke="#0E4D22" stroke-width="2"/><rect x="327" y="338" width="36" height="14" rx="3" fill="#9AA5AD"/><rect x="291" y="360" width="9" height="9" rx="2" fill="#D8B54A"/><rect x="390" y="360" width="9" height="9" rx="2" fill="#D8B54A"/><rect x="291" y="373" width="9" height="9" rx="2" fill="#D8B54A"/><rect x="390" y="373" width="9" height="9" rx="2" fill="#D8B54A"/><rect x="291" y="386" width="9" height="9" rx="2" fill="#D8B54A"/><rect x="390" y="386" width="9" height="9" rx="2" fill="#D8B54A"/><rect x="291" y="399" width="9" height="9" rx="2" fill="#D8B54A"/><rect x="390" y="399" width="9" height="9" rx="2" fill="#D8B54A"/><rect x="291" y="412" width="9" height="9" rx="2" fill="#D8B54A"/><rect x="390" y="412" width="9" height="9" rx="2" fill="#D8B54A"/><rect x="291" y="425" width="9" height="9" rx="2" fill="#D8B54A"/><rect x="390" y="425" width="9" height="9" rx="2" fill="#D8B54A"/><rect x="291" y="438" width="9" height="9" rx="2" fill="#D8B54A"/><rect x="390" y="438" width="9" height="9" rx="2" fill="#D8B54A"/><rect x="291" y="451" width="9" height="9" rx="2" fill="#D8B54A"/><rect x="390" y="451" width="9" height="9" rx="2" fill="#D8B54A"/><rect x="315" y="388" width="60" height="40" rx="4" fill="#12331d"/><text x="345" y="412" font-family="Arial, Helvetica, sans-serif" font-size="13" fill="#CFEAD6" text-anchor="middle" font-weight="bold">Pico</text><circle cx="307" cy="364" r="4" fill="#7CFF6B"/><rect x="430" y="356" width="96" height="66" rx="8" fill="#2AA9A0" stroke="#1c7d76" stroke-width="2"/><circle cx="478" cy="382" r="13" fill="#0e4d48"/><circle cx="478" cy="382" r="6" fill="#7fd8d0"/><text x="478" y="412" font-family="Arial, Helvetica, sans-serif" font-size="11" fill="#e6fffb" text-anchor="middle" font-weight="bold">sensor</text><path d="M405 378 q30 0 25 10" stroke="#C62828" stroke-width="3" fill="none"/><path d="M405 404 q30 20 25 24" stroke="#7CB342" stroke-width="3" fill="none"/><rect x="300" y="250" width="150" height="62" rx="6" fill="#0B1220" stroke="#33414f" stroke-width="2"/><text x="312" y="276" font-family="Arial, Helvetica, sans-serif" font-size="12" fill="#7fbfd8" text-anchor="start">Soil temp</text><text x="312" y="298" font-family="Arial, Helvetica, sans-serif" font-size="24" fill="#38E8FF" text-anchor="start" font-weight="bold">24.6</text><text x="374" y="298" font-family="Arial, Helvetica, sans-serif" font-size="14" fill="#7fbfd8" text-anchor="start">C</text><path d="M325 348 q-6 -20 15 -36" stroke="#2E7DBC" stroke-width="3" fill="none"/><path d="M411 348 a16 16 0 0 1 13 15" stroke="#E8762C" stroke-width="3" fill="none" opacity="0.8200000000000001"/><path d="M411 344 a32 32 0 0 1 26 30" stroke="#E8762C" stroke-width="3" fill="none" opacity="0.64"/><path d="M411 340 a48 48 0 0 1 39 45" stroke="#E8762C" stroke-width="3" fill="none" opacity="0.45999999999999996"/><rect x="700" y="210" width="180" height="320" rx="22" fill="#111827" stroke="#2b3648" stroke-width="3"/><rect x="712" y="236" width="156" height="268" rx="8" fill="#0f172a"/><circle cx="790" cy="224" r="3" fill="#33414f"/><text x="790" y="260" font-family="Arial, Helvetica, sans-serif" font-size="12" fill="#a3e635" text-anchor="middle" font-weight="bold">MY WORM BIN</text><rect x="722" y="276" width="136" height="54" rx="8" fill="#1e293b"/><text x="734" y="296" font-family="Arial, Helvetica, sans-serif" font-size="10" fill="#94a3b8" text-anchor="start" font-weight="bold">TEMP</text><text x="734" y="320" font-family="Arial, Helvetica, sans-serif" font-size="24" fill="#fb923c" text-anchor="start" font-weight="bold">24.6</text><rect x="722" y="342" width="136" height="54" rx="8" fill="#1e293b"/><text x="734" y="362" font-family="Arial, Helvetica, sans-serif" font-size="10" fill="#94a3b8" text-anchor="start" font-weight="bold">WATER</text><text x="734" y="386" font-family="Arial, Helvetica, sans-serif" font-size="24" fill="#38bdf8" text-anchor="start" font-weight="bold">63%</text><rect x="722" y="416" width="136" height="72" rx="8" fill="#1e293b"/><rect x="734" y="458" width="12" height="18" rx="2" fill="#34d399"/><rect x="754" y="443" width="12" height="33" rx="2" fill="#34d399"/><rect x="774" y="452" width="12" height="24" rx="2" fill="#34d399"/><rect x="794" y="434" width="12" height="42" rx="2" fill="#34d399"/><rect x="814" y="440" width="12" height="36" rx="2" fill="#34d399"/><rect x="834" y="425" width="12" height="51" rx="2" fill="#34d399"/><path d="M453 382 Q600 120 700 300" stroke="#E8762C" stroke-width="2.5" fill="none" stroke-dasharray="4 6"/><a href="sessions.html" target="_top"><circle cx="345" cy="468" r="7" fill="none" stroke="#B08A3C" stroke-width="3"/><circle cx="345" cy="468" r="2.5" fill="#B08A3C"/><path d="M345 468 L210 520" stroke="#B08A3C" stroke-width="2" fill="none"/><text x="210" y="516" font-family="Arial, Helvetica, sans-serif" font-size="15.5" fill="#1B3A5C" text-anchor="start" font-weight="bold">Breadboard</text><text x="210" y="534" font-family="Arial, Helvetica, sans-serif" font-size="12.5" fill="#6B7280" text-anchor="start">push parts together, no soldering yet</text></a><a href="glossary.html#the-pico" target="_top"><circle cx="315" cy="408" r="7" fill="none" stroke="#7CB342" stroke-width="3"/><circle cx="315" cy="408" r="2.5" fill="#7CB342"/><path d="M315 408 L70 300" stroke="#7CB342" stroke-width="2" fill="none"/><text x="70" y="296" font-family="Arial, Helvetica, sans-serif" font-size="15.5" fill="#1B3A5C" text-anchor="start" font-weight="bold">The brain</text><text x="70" y="314" font-family="Arial, Helvetica, sans-serif" font-size="12.5" fill="#6B7280" text-anchor="start">a tiny $8 computer</text></a><a href="stations.html" target="_top"><circle cx="478" cy="382" r="7" fill="none" stroke="#2AA9A0" stroke-width="3"/><circle cx="478" cy="382" r="2.5" fill="#2AA9A0"/><path d="M478 382 L500 500" stroke="#2AA9A0" stroke-width="2" fill="none"/><text x="500" y="496" font-family="Arial, Helvetica, sans-serif" font-size="15.5" fill="#1B3A5C" text-anchor="start" font-weight="bold">A sensor</text><text x="500" y="514" font-family="Arial, Helvetica, sans-serif" font-size="12.5" fill="#6B7280" text-anchor="start">it measures the world</text></a><a href="glossary.html" target="_top"><circle cx="420" cy="250" r="7" fill="none" stroke="#2E7DBC" stroke-width="3"/><circle cx="420" cy="250" r="2.5" fill="#2E7DBC"/><path d="M420 250 L330 216" stroke="#2E7DBC" stroke-width="2" fill="none"/><text x="330" y="212" font-family="Arial, Helvetica, sans-serif" font-size="15.5" fill="#1B3A5C" text-anchor="start" font-weight="bold">A little screen</text><text x="330" y="230" font-family="Arial, Helvetica, sans-serif" font-size="12.5" fill="#6B7280" text-anchor="start">see the reading right here</text></a><a href="sessions.html" target="_top"><circle cx="445" cy="354" r="7" fill="none" stroke="#E8762C" stroke-width="3"/><circle cx="445" cy="354" r="2.5" fill="#E8762C"/><path d="M445 354 L560 216" stroke="#E8762C" stroke-width="2" fill="none"/><text x="560" y="212" font-family="Arial, Helvetica, sans-serif" font-size="15.5" fill="#1B3A5C" text-anchor="start" font-weight="bold">Its own WiFi</text><text x="560" y="230" font-family="Arial, Helvetica, sans-serif" font-size="12.5" fill="#6B7280" text-anchor="start">no internet needed</text></a><a href="demos/mission-control.html" target="_top"><circle cx="790" cy="360" r="7" fill="none" stroke="#1B3A5C" stroke-width="3"/><circle cx="790" cy="360" r="2.5" fill="#1B3A5C"/><path d="M790 360 L760 555" stroke="#1B3A5C" stroke-width="2" fill="none"/><text x="760" y="551" font-family="Arial, Helvetica, sans-serif" font-size="15.5" fill="#1B3A5C" text-anchor="middle" font-weight="bold">Your phone or laptop</text><text x="760" y="569" font-family="Arial, Helvetica, sans-serif" font-size="12.5" fill="#6B7280" text-anchor="middle">watch it live, anywhere in the room</text></a></svg>